<?xml version="1.0" encoding="UTF-8" standalone="no"?>
<!-- Created with Inkscape (http://www.inkscape.org/) -->

<svg
   width="51.485809mm"
   height="14.825139mm"
   viewBox="0 0 51.48581 14.825139"
   version="1.1"
   id="svg1"
   xml:space="preserve"
   xmlns="http://www.w3.org/2000/svg"
   xmlns:svg="http://www.w3.org/2000/svg"><defs
     id="defs1" /><g
     id="layer1"
     transform="matrix(0.3761882,0,0,0.3761882,-0.83435746,-47.754756)"
     style="display:inline"><g
       transform="matrix(9.944741e-4,0,0,-9.944741e-4,98.635366,143.85125)"
       fill="#000000"
       stroke="none"
       id="g4"
       style="fill:#83ed06;fill-opacity:1"><path
         d="M 3043,11841 C 2357,11414 1781,10889 1296,10250 496,9197 50,7937 4,6600 l -7,-200 h 2241 2242 v 45 c 0,25 5,89 11,143 63,583 374,1097 855,1413 l 94,62 -29,51 c -725,1263 -2204,3812 -2213,3813 -7,1 -77,-38 -155,-86 z"
         id="path1"
         style="fill:#83ed06;fill-opacity:1" /><path
         d="M 9337,11488 C 8933,10787 7368,8076 7364,8069 c -2,-4 33,-30 77,-59 430,-280 739,-732 838,-1225 22,-110 41,-269 41,-340 v -45 h 2242 2241 l -7,198 c -23,649 -134,1264 -337,1857 -452,1325 -1323,2461 -2494,3251 -171,115 -347,224 -362,224 -6,0 -125,-199 -266,-442 z"
         id="path2"
         style="fill:#83ed06;fill-opacity:1" /><path
         d="m 6225,7665 c -675,-94 -1166,-714 -1096,-1382 32,-312 152,-565 370,-784 219,-218 472,-338 783,-370 360,-38 734,93 1001,350 469,452 527,1168 137,1690 -275,368 -738,560 -1195,496 z"
         id="path3"
         style="fill:#83ed06;fill-opacity:1" /><path
         d="M 4932,3856 C 3132,739 3206,869 3221,855 3245,833 3546,676 3715,597 4394,282 5073,100 5851,23 c 249,-24 844,-24 1098,1 764,73 1449,256 2121,566 144,66 464,233 501,261 l 22,17 -1078,1868 C 7922,3764 7419,4635 7398,4671 l -38,66 -118,-58 c -204,-100 -422,-163 -654,-188 -339,-37 -716,32 -1032,188 l -116,57 z"
         id="path4"
         style="fill:#83ed06;fill-opacity:1" /></g></g><g
     id="text2"
     style="font-weight:bold;font-size:8.46667px;line-height:1;font-family:'Circular Std Bold';-inkscape-font-specification:'Circular Std Bold,  Bold';fill:#83ec06;stroke:#83ec06;stroke-width:0"
     aria-label="ichewradon's&#10;homelab"><path
       d="M 1.2615338,6.2314692 V 2.0658675 H 0.13546671 V 6.2314692 Z M 0,0.70273362 C 0,1.0752671 0.31326678,1.3885339 0.69426693,1.3885339 1.0837338,1.3885339 1.3885339,1.0752671 1.3885339,0.70273362 1.3885339,0.3132668 1.0837338,0 0.69426693,0 0.31326678,0 0,0.3132668 0,0.70273362 Z M 4.3349318,2.9802679 c 0.5588002,0 0.821267,0.3556001 0.922867,0.7027336 L 6.2653326,3.3443347 C 6.0875325,2.6416011 5.4440656,1.9388674 4.3095318,1.9388674 c -1.2107338,0 -2.1590009,0.9228671 -2.1590009,2.2098009 0,1.2784672 0.9652004,2.2098009 2.1928676,2.2098009 1.1091337,0 1.7610673,-0.7112003 1.9473341,-1.4054672 L 5.3001322,4.6228018 C 5.2069988,4.9445353 4.919132,5.3255355 4.3433985,5.3255355 c -0.5757336,0 -1.0668005,-0.4233335 -1.0668005,-1.1768672 0,-0.7535336 0.4826002,-1.1684004 1.0583338,-1.1684004 z m 3.911595,0.8043336 c 0.0254,-0.4572002 0.3048001,-0.8128003 0.7789337,-0.8128003 0.5418668,0 0.7704669,0.3640668 0.7704669,0.8297337 V 6.2314692 H 10.921995 V 3.6068014 c 0,-0.9144003 -0.491067,-1.6510006 -1.5494011,-1.6510006 -0.3979335,0 -0.8551337,0.1354667 -1.1260671,0.4572002 V 0.10160005 H 7.1204597 V 6.2314692 H 8.2465268 Z M 12.886259,3.6745348 c 0.0254,-0.3810001 0.347134,-0.821267 0.931334,-0.821267 0.643467,0 0.9144,0.4064002 0.931333,0.821267 z m 1.972734,1.0837338 c -0.135467,0.3725334 -0.423333,0.6350002 -0.948267,0.6350002 -0.5588,0 -1.024467,-0.3979335 -1.049867,-0.948267 h 2.980268 c 0,-0.016933 0.01693,-0.1862668 0.01693,-0.3471335 0,-1.3377339 -0.770467,-2.1590009 -2.057401,-2.1590009 -1.0668,0 -2.048934,0.8636004 -2.048934,2.1928676 0,1.4054672 1.007534,2.2267342 2.150534,2.2267342 1.024468,0 1.684868,-0.6011336 1.896535,-1.3208005 z M 19.041529,2.0658675 18.135595,4.7413352 17.365128,2.0658675 h -1.185333 l 1.329267,4.1656017 h 1.143 l 0.956734,-2.8448012 0.973667,2.8448012 h 1.126067 l 1.303867,-4.1656017 h -1.1176 L 21.12433,4.7498019 20.226863,2.0658675 Z m 7.213597,-0.016933 c -0.08467,-0.00847 -0.169333,-0.016933 -0.262467,-0.016933 -0.3556,0 -0.931333,0.1016001 -1.185333,0.6519336 V 2.0658675 h -1.092201 v 4.1656017 h 1.126067 V 4.3264684 c 0,-0.897467 0.499534,-1.1768671 1.075267,-1.1768671 0.1016,0 0.211667,0.00847 0.338667,0.033867 z m 0.567278,3.0480012 c 0,0.6519336 0.541867,1.2530671 1.430867,1.2530671 0.618067,0 1.016,-0.2878667 1.227667,-0.6180669 0,0.1608668 0.01693,0.3894668 0.04233,0.4995336 h 1.032934 c -0.0254,-0.1439334 -0.0508,-0.4402669 -0.0508,-0.6604003 V 3.5221347 c 0,-0.8382003 -0.491067,-1.5832673 -1.811867,-1.5832673 -1.117601,0 -1.718734,0.719667 -1.786468,1.3716006 l 0.999067,0.2116667 c 0.03387,-0.3640668 0.304801,-0.6773336 0.795867,-0.6773336 0.474134,0 0.702734,0.2455335 0.702734,0.5418669 0,0.1439334 -0.0762,0.2624668 -0.313267,0.2963335 l -1.024467,0.1524 c -0.694267,0.1016001 -1.2446,0.5164669 -1.2446,1.2615339 z m 1.667934,0.4148668 c -0.364067,0 -0.541867,-0.2370668 -0.541867,-0.4826002 0,-0.3217335 0.2286,-0.4826002 0.516467,-0.5249335 l 0.9398,-0.1439334 v 0.1862667 c 0,0.7366003 -0.440267,0.9652004 -0.9144,0.9652004 z M 35.593865,0.10160005 H 34.484731 V 2.4807343 c -0.118533,-0.2201334 -0.4572,-0.5164668 -1.176867,-0.5164668 -1.176867,0 -1.998134,0.9567337 -1.998134,2.1759342 0,1.2615338 0.846667,2.1928675 2.032,2.1928675 0.558801,0 0.982134,-0.2540001 1.168401,-0.5842002 0,0.1947334 0.0254,0.3979335 0.04233,0.4826002 h 1.075267 C 35.610798,6.0621358 35.593865,5.7573356 35.593865,5.4779355 Z M 32.444263,4.1402017 c 0,-0.745067 0.457201,-1.1684005 1.032934,-1.1684005 0.575734,0 1.024467,0.4148668 1.024467,1.1599338 0,0.7535336 -0.448733,1.1938005 -1.024467,1.1938005 -0.592667,0 -1.032934,-0.4402669 -1.032934,-1.1853338 z m 10.43941,-0.3048002 c 0,-0.4826002 0.287867,-0.8636003 0.778933,-0.8636003 0.541867,0 0.770467,0.3640668 0.770467,0.8297337 v 2.4299343 h 1.126068 V 3.6068014 c 0,-0.9144003 -0.474134,-1.6510006 -1.507068,-1.6510006 -0.448733,0 -0.948267,0.1947334 -1.202267,0.6265336 V 2.0658675 h -1.0922 v 4.1656017 h 1.126067 z m 3.454392,-2.5484676 c 0,0.0762 0.0254,0.1778 0.03387,0.2201334 l 0.397933,1.5494006 h 0.397934 l 0.397933,-1.5494006 c 0.01693,-0.0508 0.03387,-0.1524001 0.03387,-0.2201334 0,-0.37253353 -0.262467,-0.64346697 -0.626534,-0.64346697 -0.364066,0 -0.635,0.27093344 -0.635,0.64346697 z m 1.794943,3.7846015 c 0.0508,0.4741335 0.482601,1.2869338 1.735668,1.2869338 1.0922,0 1.617134,-0.6942669 1.617134,-1.3716005 0,-0.6096003 -0.414867,-1.1091338 -1.236134,-1.2784672 L 49.657009,3.5814014 c -0.2286,-0.042333 -0.381,-0.1693334 -0.381,-0.3725334 0,-0.2370668 0.237067,-0.4148669 0.5334,-0.4148669 0.474134,0 0.651934,0.3132668 0.6858,0.5588002 L 51.43501,3.1411346 c -0.0508,-0.4487335 -0.448734,-1.2022672 -1.634068,-1.2022672 -0.897467,0 -1.557867,0.618067 -1.557867,1.3631339 0,0.5842003 0.364067,1.0668004 1.168401,1.2446005 l 0.550333,0.1270001 c 0.321734,0.067733 0.448734,0.2201334 0.448734,0.4064001 0,0.2201335 -0.1778,0.4148669 -0.550334,0.4148669 -0.491067,0 -0.7366,-0.3048002 -0.762,-0.6350003 z"
       id="path5" /><path
       d="m 1.2615338,12.251272 c 0.0254,-0.457201 0.3048001,-0.812801 0.7789337,-0.812801 0.5418669,0 0.7704669,0.364067 0.7704669,0.829734 v 2.429934 h 1.1260672 v -2.624668 c 0,-0.9144 -0.4910669,-1.651 -1.5494007,-1.651 -0.3979334,0 -0.8551336,0.135467 -1.1260671,0.4572 V 8.5682701 H 0.13546671 V 14.698139 H 1.2615338 Z m 5.6895994,1.5494 c -0.5503336,0 -1.0583338,-0.4064 -1.0583338,-1.185334 0,-0.7874 0.5080002,-1.185333 1.0583338,-1.185333 0.5503335,0 1.0583337,0.397933 1.0583337,1.185333 0,0.787401 -0.5080002,1.185334 -1.0583337,1.185334 z m 0,-3.395135 c -1.2446005,0 -2.1844009,0.922868 -2.1844009,2.209801 0,1.278468 0.9398004,2.209801 2.1844009,2.209801 1.2446005,0 2.1844009,-0.931333 2.1844009,-2.209801 0,-1.286933 -0.9398004,-2.209801 -2.1844009,-2.209801 z m 4.1994658,4.292602 v -2.438401 c 0,-0.4572 0.287866,-0.821267 0.778933,-0.821267 0.508,0 0.736601,0.338667 0.736601,0.787401 v 2.472267 h 1.1176 v -2.438401 c 0,-0.448733 0.287867,-0.821267 0.770467,-0.821267 0.516467,0 0.7366,0.338667 0.7366,0.787401 v 2.472267 h 1.092201 v -2.700868 c 0,-1.1176 -0.736601,-1.583267 -1.507068,-1.583267 -0.550333,0 -0.9906,0.186267 -1.3208,0.694267 -0.211667,-0.448733 -0.668867,-0.694267 -1.236134,-0.694267 -0.4572,0 -0.9906,0.220134 -1.2192,0.626534 v -0.508 h -1.075267 v 4.165601 z m 7.196666,-2.556934 c 0.0254,-0.381 0.347134,-0.821267 0.931334,-0.821267 0.643467,0 0.9144,0.4064 0.931334,0.821267 z m 1.972734,1.083734 c -0.135466,0.372533 -0.423333,0.635 -0.948267,0.635 -0.5588,0 -1.024467,-0.397934 -1.049867,-0.948267 h 2.980268 c 0,-0.01693 0.01693,-0.186267 0.01693,-0.347134 0,-1.337734 -0.770467,-2.159001 -2.0574,-2.159001 -1.066801,0 -2.048935,0.863601 -2.048935,2.192868 0,1.405467 1.007534,2.226734 2.150535,2.226734 1.024467,0 1.684867,-0.601133 1.896534,-1.3208 z m 3.01413,1.4732 V 8.5682701 h -1.126067 v 6.1298689 z m 0.922862,-1.134534 c 0,0.651934 0.541867,1.253068 1.430867,1.253068 0.618067,0 1.016001,-0.287867 1.227668,-0.618067 0,0.160866 0.01693,0.389466 0.04233,0.499533 h 1.032934 c -0.0254,-0.143933 -0.0508,-0.440267 -0.0508,-0.6604 v -2.048934 c 0,-0.838201 -0.491067,-1.583268 -1.811868,-1.583268 -1.1176,0 -1.718734,0.719667 -1.786467,1.371601 l 0.999067,0.211667 c 0.03387,-0.364067 0.3048,-0.677334 0.795867,-0.677334 0.474133,0 0.702733,0.245534 0.702733,0.541867 0,0.143933 -0.0762,0.262467 -0.313266,0.296334 l -1.024467,0.1524 c -0.694267,0.1016 -1.244601,0.516466 -1.244601,1.261533 z m 1.667934,0.414867 c -0.364067,0 -0.541867,-0.237067 -0.541867,-0.4826 0,-0.321733 0.2286,-0.4826 0.516467,-0.524933 l 0.9398,-0.143934 v 0.186267 c 0,0.7366 -0.440266,0.9652 -0.9144,0.9652 z m 4.241799,0.719667 v -0.508 c 0.220133,0.3556 0.6604,0.6096 1.236133,0.6096 1.185334,0 1.964268,-0.9398 1.964268,-2.201334 0,-1.236134 -0.702734,-2.175934 -1.921934,-2.175934 -0.618067,0 -1.075267,0.270933 -1.261534,0.567267 V 8.5682701 h -1.109134 v 6.1298689 z m 2.074334,-2.091267 c 0,0.762 -0.4572,1.185333 -1.032934,1.185333 -0.567267,0 -1.0414,-0.4318 -1.0414,-1.185333 0,-0.762001 0.474133,-1.176867 1.0414,-1.176867 0.575734,0 1.032934,0.414866 1.032934,1.176867 z"
       id="path6" /></g></svg>
