<?xml version="1.0" encoding="UTF-8" standalone="no"?>
<!-- Created with Inkscape (http://www.inkscape.org/) -->

<svg
   width="400.84381mm"
   height="400.84378mm"
   viewBox="0 0 400.84381 400.84378"
   version="1.1"
   id="svg1"
   xml:space="preserve"
   xmlns="http://www.w3.org/2000/svg"
   xmlns:svg="http://www.w3.org/2000/svg"><defs
     id="defs1" /><g
     id="layer1"
     transform="translate(1571.3605,-107.94999)"><path
       style="fill:#83ec06;fill-opacity:1"
       d="m -1571.3605,452.70209 v -56.09167 h 56.0917 56.0917 v 56.09167 56.09167 h -56.0917 -56.0917 z m 96.3084,0.13229 V 412.75 h -40.0844 -40.0844 v 40.08438 40.08438 h 40.0844 40.0844 z m -64.2938,-0.13229 V 428.625 h 24.0771 24.0771 v 24.07709 24.07708 h -24.0771 -24.0771 z m 96.3083,48.15417 v -7.9375 h 24.0771 24.0771 v -8.0698 -8.06979 h 7.9375 7.9375 v -16.00729 -16.00729 h 8.0698 8.0698 V 428.7573 412.75 h -8.0698 -8.0698 v 7.9375 7.9375 h -23.9448 -23.9448 v 16.13959 16.13958 h 7.9375 7.9375 v -8.06979 -8.06979 h 8.0698 8.0698 v 8.06979 8.06979 h -8.0698 -8.0698 v 7.9375 7.9375 h -16.0073 -16.0073 V 444.76459 412.75 h 24.0771 24.0771 v -8.06979 -8.06979 h 32.0146 32.0146 v 8.06979 8.06979 h 8.0698 8.0698 v -16.13958 -16.13958 h -16.0073 -16.0073 v -7.93751 -7.9375 h -8.0698 -8.0698 v 7.9375 7.93751 h -8.0698 -8.0698 v -40.08438 -40.08438 h -7.9375 -7.9375 v 8.06979 8.0698 h -8.0698 -8.0698 v 8.06979 8.06979 h 8.0698 8.0698 v 16.00729 16.00729 h -8.0698 -8.0698 v -16.00729 -16.00729 h -24.0771 -24.077 v 7.9375 7.9375 h 8.0698 8.0697 v 8.06979 8.06979 h 8.0698 8.0698 v 7.9375 7.93751 h 7.9375 7.9375 v 8.06979 8.06979 h -16.0073 -16.0073 v -16.00729 -16.0073 h -8.0697 -8.0698 v 7.9375 7.93751 h -7.9375 -7.9375 v -7.93751 -7.9375 h 7.9375 7.9375 v -8.06979 -8.06979 h -7.9375 -7.9375 v -7.9375 -7.9375 h -8.0698 -8.0698 v 23.94479 23.9448 h -7.9375 -7.9375 v -7.93751 -7.9375 h -8.0698 -8.0698 v 7.9375 7.93751 h -8.0698 -8.0698 v -23.9448 -23.94479 h -7.9375 -7.9375 v 23.94479 23.9448 h -8.0698 -8.0698 v -32.01459 -32.01458 h 24.0771 24.0771 v 16.00729 16.00729 h 8.0698 8.0698 v -7.9375 -7.9375 h 7.9375 7.9375 v -8.06979 -8.06979 h 8.0698 8.0698 v -8.0698 -8.06979 h 16.0073 16.0072 v -7.9375 -7.9375 h -24.077 -24.0771 v 7.9375 7.9375 h -16.0073 -16.0073 v -7.9375 -7.9375 h 16.0073 16.0073 v -8.06979 -8.06979 h 16.0073 16.0073 v -7.9375 -7.9375 h -32.0146 -32.0146 v 7.9375 7.9375 h -8.0698 -8.0698 v -16.00729 -16.0073 h 40.0844 40.0844 v 8.06979 8.0698 h 8.0698 8.0697 v 16.00729 16.00729 h 8.0698 8.0698 v 7.9375 7.9375 h 16.0073 16.0073 v -7.9375 -7.9375 h 7.9375 7.9375 v 7.9375 7.9375 h 8.0698 8.0698 V 284.29479 268.2875 h 8.0698 8.0698 v -7.9375 -7.9375 h 7.9375 7.9375 v -8.0698 -8.06979 h -24.0771 -24.0771 v 16.0073 16.00729 h -16.0073 -16.0073 v -7.9375 -7.9375 h -7.9375 -7.9375 v -8.0698 -8.06979 h -8.0698 -8.0698 v -48.15417 -48.15416 h 16.0073 16.0073 v -16.0073 -16.00729 h 24.0771 24.0771 v 8.06979 8.0698 h 32.0146 32.0146 v 32.01458 32.01458 h -7.9375 -7.9375 v 8.0698 8.06979 h 7.9375 7.9375 v 16.00729 16.00729 h -7.9375 -7.9375 v 8.06979 8.0698 h -8.0698 -8.0698 v 7.9375 7.9375 h 8.0698 8.0698 v 8.06979 8.06979 h 7.9375 7.9375 V 268.41979 252.4125 h 8.0698 8.0697 v -8.0698 -8.06979 h 40.0844 40.0844 v 8.06979 8.0698 h 8.0698 8.0698 v 7.9375 7.9375 h 7.9375 7.9375 v 8.06979 8.06979 h -7.9375 -7.9375 v 7.9375 7.9375 h 7.9375 7.9375 v 16.13959 16.13958 h -7.9375 -7.9375 v -8.06979 -8.06979 h -16.0073 -16.0073 v -8.0698 -8.06979 h -8.0698 -8.0698 v -7.9375 -7.9375 h -8.0698 -8.0698 v 7.9375 7.9375 h -7.9375 -7.9375 v 16.13959 16.13958 h 32.0146 32.0146 v 7.9375 7.9375 h 16.0073 16.0073 V 380.60313 412.75 h -16.0073 -16.0073 v 16.0073 16.00729 h 16.0073 16.0073 v 16.00729 16.00729 h -7.9375 -7.9375 v 8.06979 8.0698 h 7.9375 7.9375 v 7.9375 7.9375 h -23.9448 -23.9448 v -16.0073 -16.00729 h -8.0698 -8.0698 v 8.06979 8.0698 h -8.0698 -8.0698 v -8.0698 -8.06979 h -7.9375 -7.9375 v 8.06979 8.0698 h -16.1396 -16.1395 v -8.0698 -8.06979 h 16.1395 16.1396 v -7.9375 -7.9375 h -8.0698 -8.0698 v -8.06979 -8.06979 h -8.0697 -8.0698 v 8.06979 8.06979 h -7.9375 -7.9375 v -8.06979 -8.06979 h -8.0698 -8.0698 v 16.00729 16.00729 h -24.0771 -24.0771 v 8.06979 8.0698 h -7.9375 -7.9375 v 7.9375 7.9375 h -24.0771 -24.0771 z m 256.6459,-32.01459 v -7.9375 h -8.0698 -8.0698 v -8.06979 -8.06979 h -7.9375 -7.9375 v 8.06979 8.06979 h 7.9375 7.9375 v 7.9375 7.9375 h 8.0698 8.0698 z m -160.3375,-16.00729 v -8.06979 h -8.0698 -8.0698 v 8.06979 8.06979 h 8.0698 8.0698 z m 15.875,-32.14688 V 412.75 h -7.9375 -7.9375 v 7.9375 7.9375 h 7.9375 7.9375 z m 80.1687,-16.13958 v -24.07708 h -24.0771 -24.077 v 24.07708 24.07708 h 24.077 24.0771 z m -32.0146,0.13229 v -8.06979 h 8.0698 8.0698 v 8.06979 8.06979 h -8.0698 -8.0698 z m 64.2938,0 v -8.06979 h 16.0073 16.0073 v -16.00729 -16.0073 h -16.0073 -16.0073 v 16.0073 16.00729 h -8.0698 -8.0698 v 8.06979 8.06979 h 8.0698 8.0698 z m -96.3083,-48.15417 v -8.06979 h -16.0073 -16.0073 v 8.06979 8.06979 h 16.0073 16.0073 z m 48.1541,0 v -8.06979 h -8.0698 -8.0698 v 8.06979 8.06979 h 8.0698 8.0698 z m 32.0146,0 v -8.06979 h -8.0698 -8.0698 v 8.06979 8.06979 h 8.0698 8.0698 z m -224.6312,-32.01458 v -8.06979 h -7.9375 -7.9375 v 8.06979 8.06979 h 7.9375 7.9375 z m 128.3229,0 v -8.06979 h -16.0073 -16.0073 v 8.06979 8.06979 h 16.0073 16.0073 z m 48.1541,-16.00729 v -24.07709 h -8.0697 -8.0698 v 7.9375 7.9375 h -7.9375 -7.9375 v -7.9375 -7.9375 h -8.0698 -8.0698 v -8.06979 -8.06979 h -7.9375 -7.9375 v 16.00729 16.00729 h 16.0073 16.0073 v 16.13959 16.13958 h 16.0073 16.0072 z m 80.1688,-16.13959 v -7.9375 h 8.0698 8.0698 v -8.06979 -8.06979 h -8.0698 -8.0698 v -7.9375 -7.9375 h -16.0073 -16.0073 v 16.00729 16.00729 h 8.0698 8.0698 v 7.9375 7.9375 h 7.9375 7.9375 z m -15.875,-16.00729 v -8.06979 h 7.9375 7.9375 v 8.06979 8.06979 h -7.9375 -7.9375 z m -32.2792,-7.9375 V 252.4125 h -7.9375 -7.9375 v 16.00729 16.00729 h 7.9375 7.9375 z m -144.1979,-32.14688 v -16.13958 h 7.9375 7.9375 v -7.9375 -7.9375 h 8.0698 8.0698 v 7.9375 7.9375 h 8.0698 8.0698 v -7.9375 -7.9375 h -8.0698 -8.0698 v -8.06979 -8.0698 h 16.0073 16.0073 v -16.00729 -16.00729 h 8.0698 8.0698 v -8.06979 -8.06979 h -8.0698 -8.0698 v 8.06979 8.06979 h -7.9375 -7.9375 v -8.06979 -8.06979 h -8.0698 -8.0698 v 8.06979 8.06979 h -8.0698 -8.0698 v -16.00729 -16.00729 h -7.9375 -7.9375 v 16.00729 16.00729 h 7.9375 7.9375 v 24.07708 24.07709 h -7.9375 -7.9375 v -16.00729 -16.0073 h -8.0698 -8.0698 v 7.9375 7.9375 h -7.9375 -7.9375 v 24.07709 24.07708 h 7.9375 7.9375 v 8.06979 8.0698 h 8.0698 8.0698 z m -16.1396,-24.07708 v -7.9375 h 8.0698 8.0698 v 7.9375 7.9375 h -8.0698 -8.0698 z m 48.1542,-48.02188 v -8.06979 h 8.0698 8.0698 v 8.06979 8.06979 h -8.0698 -8.0698 z m 48.1542,56.09167 v -16.00729 h -8.0698 -8.0698 v 16.00729 16.00729 h 8.0698 8.0698 z m -48.1542,280.59064 v -7.9375 h 8.0698 8.0698 v 7.9375 7.9375 h -8.0698 -8.0698 z m 32.0146,0 v -7.9375 h 8.0698 8.0698 v 7.9375 7.9375 h -8.0698 -8.0698 z m -240.5063,-208.49168 v -7.9375 h 16.0073 16.0073 v 7.9375 7.9375 h -16.0073 -16.0073 z m 0,-40.08437 v -16.0073 h 8.0698 8.0698 v 16.0073 16.00729 h -8.0698 -8.0698 z m 0,-88.23855 v -56.09167 h 56.0917 56.0917 v 56.09167 56.09167 h -56.0917 -56.0917 z m 96.3084,0.13229 v -40.08437 h -40.0844 -40.0844 v 40.08437 40.08438 h 40.0844 40.0844 z m -64.2938,-0.13229 v -24.07708 h 24.0771 24.0771 v 24.07708 24.07708 h -24.0771 -24.0771 z m 256.6458,0 v -56.09167 h 56.0917 56.0917 v 56.09167 56.09167 h -56.0917 -56.0917 z m 96.3084,0.13229 v -40.08437 h -40.0844 -40.0844 v 40.08437 40.08438 h 40.0844 40.0844 z m -64.2938,-0.13229 v -24.07708 h 24.0771 24.0771 v 24.07708 24.07708 h -24.0771 -24.0771 z"
       id="path1" /></g></svg>
