<?xml version="1.0" encoding="UTF-8" standalone="no"?>
<svg
   height="329.08151"
   viewBox="0 0 504.25238 329.08151"
   width="504.25238"
   version="1.1"
   id="svg57"
   sodipodi:docname="blueprint-labelled-97975f4b1159239a8e248d180be87e3e.svg"
   inkscape:version="1.4 (e7c3feb1, 2024-10-09)"
   xmlns:inkscape="http://www.inkscape.org/namespaces/inkscape"
   xmlns:sodipodi="http://sodipodi.sourceforge.net/DTD/sodipodi-0.dtd"
   xmlns="http://www.w3.org/2000/svg"
   xmlns:svg="http://www.w3.org/2000/svg">
  <defs
     id="defs57" />
  <sodipodi:namedview
     id="namedview57"
     pagecolor="#505050"
     bordercolor="#eeeeee"
     borderopacity="1"
     inkscape:showpageshadow="0"
     inkscape:pageopacity="0"
     inkscape:pagecheckerboard="0"
     inkscape:deskcolor="#505050"
     inkscape:zoom="1.1304449"
     inkscape:cx="234.86328"
     inkscape:cy="176.47919"
     inkscape:window-width="1712"
     inkscape:window-height="956"
     inkscape:window-x="0"
     inkscape:window-y="34"
     inkscape:window-maximized="0"
     inkscape:current-layer="g31" />
  <mask
     id="a"
     fill="#ffffff">
    <path
       d="M 0.08777264,0.5133375 H 513.97467 V 350.91225 H 0.08777264 Z"
       fill="#ffffff"
       fill-rule="evenodd"
       id="path1" />
  </mask>
  <g
     fill="none"
     fill-rule="evenodd"
     id="g57"
     transform="translate(-161.72228,-0.5133375)">
    <g
       transform="translate(152)"
       id="g31">
      <path
         d="M 469.29546,0.5133375 H 28.880126 c -10.563438,0 -19.1578427,8.5921875 -19.1578427,19.1528995 V 296.48093 c 0,10.56217 8.5944047,19.15289 19.1578427,19.15289 h 20.451026 v 9.59985 H 102.5872 v -9.59985 h 36.95814 v 4.34802 c -0.94795,0.37878 -1.57552,1.29431 -1.57552,2.32683 v 0.38318 c 0,1.38499 1.12788,2.50965 2.51615,2.50965 h 0.11996 l 0.18871,-0.019 c 1.14543,-0.13894 1.96025,-0.55429 2.54979,-1.00474 0.45349,0.64204 1.20249,1.05593 2.05242,1.05593 h 27.47869 c 0.847,0 1.596,-0.41243 2.04949,-1.05593 0.58954,0.45191 1.40729,0.86726 2.55711,1.0062 l 0.11849,0.0146 0.18433,0.004 c 1.3868,0 2.51468,-1.12466 2.51468,-2.50818 v -0.38757 c 0,-1.03106 -0.62611,-1.94512 -1.57552,-2.32391 v -4.34947 h 36.75772 v 4.34947 c -0.94794,0.37733 -1.57405,1.29285 -1.57405,2.32538 v 0.38317 c 0,1.38499 1.12788,2.50965 2.51468,2.50965 h 0.12142 l 0.18725,-0.019 c 1.1469,-0.13894 1.96172,-0.55429 2.55126,-1.0062 0.45349,0.64496 1.20248,1.05739 2.05095,1.05739 h 27.47869 c 0.84701,0 1.596,-0.41243 2.04949,-1.05593 0.59101,0.45191 1.40729,0.86726 2.55711,1.0062 l 0.11703,0.0146 0.18579,0.004 c 1.38681,0 2.51469,-1.12466 2.51469,-2.50818 v -0.38757 c 0,-1.03106 -0.62612,-1.94512 -1.57406,-2.32391 v -4.34947 h 42.43661 v 13.96102 h 36.66702 v -13.96102 h 135.52974 c 7.4124,0 14.03631,-4.19299 17.22977,-10.79325 h 20.07653 c 0.12142,0.20913 0.2955,0.57183 0.4769,1.13197 0.41692,1.27969 1.59746,2.13964 2.94038,2.13964 h 0.79581 c 0.88065,0 1.72327,-0.38025 2.31135,-1.04423 0.591,-0.6669 0.86748,-1.55756 0.76069,-2.43945 -0.42862,-3.51585 -2.29525,-5.08803 -3.53138,-6.12933 -0.13752,-0.11554 -0.29989,-0.25302 -0.43887,-0.37733 0.26625,-0.0907 0.67585,-0.1872 1.25661,-0.24131 1.596,-0.14186 2.80288,-1.46396 2.80288,-3.07125 v -57.0726 c 0,-1.60583 -1.20541,-2.92646 -2.79995,-3.06833 -0.58369,-0.0512 -0.99329,-0.14917 -1.25954,-0.23985 0.13898,-0.12577 0.30136,-0.26325 0.43887,-0.37878 1.23759,-1.0413 3.10422,-2.61495 3.53138,-6.13519 0.10679,-0.88043 -0.16969,-1.76816 -0.75923,-2.4336 -0.58661,-0.66398 -1.42777,-1.04276 -2.30842,-1.04276 h -0.80458 c -1.34,0 -2.52054,0.85848 -2.93454,2.13817 -0.18139,0.56014 -0.35548,0.92284 -0.47836,1.13344 h -18.14845 v -23.17916 h 18.14845 c 0.12142,0.20913 0.2955,0.5733 0.4769,1.13343 0.41692,1.27969 1.59746,2.13964 2.94038,2.13964 h 0.79581 c 0.88065,0 1.72327,-0.38025 2.31135,-1.04422 0.591,-0.66837 0.86748,-1.55757 0.76069,-2.44092 -0.42862,-3.51438 -2.29525,-5.08803 -3.53138,-6.12787 -0.13751,-0.117 -0.29989,-0.25301 -0.43887,-0.37733 0.26625,-0.0921 0.67585,-0.18866 1.25661,-0.23985 1.59747,-0.14478 2.80288,-1.46542 2.80288,-3.07417 V 137.4282 c 0,-1.60729 -1.20541,-2.92646 -2.79995,-3.06979 -0.58222,-0.0512 -0.99329,-0.14917 -1.25954,-0.23985 0.13898,-0.12431 0.30136,-0.26178 0.43887,-0.37732 1.23759,-1.0413 3.10422,-2.61495 3.53138,-6.13519 0.10679,-0.88042 -0.16969,-1.76816 -0.75923,-2.43506 -0.58661,-0.66251 -1.42777,-1.04276 -2.30842,-1.04276 h -0.80458 c -1.34,0 -2.51908,0.85848 -2.93454,2.13671 -0.18139,0.5616 -0.35548,0.92576 -0.47836,1.1349 h -18.14845 v -21.5397 h 20.61486 V 12.944588 H 487.22449 C 484.44795,5.5560375 477.27985,0.5133375 469.29546,0.5133375 Z m 0,1.9670625 c 7.84249,0 14.44445,5.2547625 16.50857,12.43125 h 21.29657 v 88.98142 h -20.61487 v 25.47383 h 20.61487 c 0.89967,0 1.53749,-1.52685 1.85201,-2.49356 0.15067,-0.46362 0.57491,-0.77805 1.06205,-0.77805 h 0.80458 c 0.67292,0 1.19663,0.60547 1.11325,1.27383 -0.56467,4.67562 -4.23796,4.8321 -4.23796,6.88692 0,1.52831 2.03048,1.94951 3.3061,2.06212 0.57345,0.0512 1.00646,0.53381 1.00646,1.11004 v 57.07114 c 0,0.57768 -0.43447,1.06177 -1.00938,1.11442 -1.27563,0.11408 -3.30318,0.53528 -3.30318,2.06213 0,2.05335 3.67036,2.2113 4.23796,6.88106 0.0834,0.67275 -0.44325,1.27823 -1.11764,1.27823 h -0.79581 c -0.49006,0 -0.91722,-0.31444 -1.0679,-0.77952 -0.31452,-0.96671 -0.95087,-2.49063 -1.85054,-2.49063 -0.38473,0 -8.84455,0 -20.61487,0 v 27.11182 h 20.61487 c 0.89967,0 1.53749,-1.52685 1.85201,-2.49356 0.15067,-0.46508 0.57491,-0.77951 1.06205,-0.77951 h 0.80458 c 0.67292,0 1.19663,0.60401 1.11325,1.27529 -0.56467,4.67562 -4.23796,4.83064 -4.23796,6.88545 0,1.52832 2.03048,1.94952 3.3061,2.06359 0.57345,0.0512 1.00646,0.53382 1.00646,1.10858 v 57.0726 c 0,0.57769 -0.43447,1.06031 -1.00938,1.11296 -1.27563,0.11408 -3.30318,0.53528 -3.30318,2.06212 0,2.05336 3.67036,2.20984 4.23796,6.88253 0.0834,0.67129 -0.44325,1.27822 -1.11764,1.27822 h -0.79581 c -0.49006,0 -0.91722,-0.31443 -1.0679,-0.77951 -0.31452,-0.96817 -0.95087,-2.4921 -1.85054,-2.4921 -0.3979,0 -9.4458,0 -21.85685,0 -2.53663,6.32385 -8.71582,10.79325 -15.94829,10.79325 H 331.79815 v 13.95956 h -32.73042 v -13.95956 h -46.37467 v 7.23938 c 0,0.4329 0.73582,0.73856 1.20248,0.89066 0.22236,0.0717 0.37303,0.27495 0.37303,0.51041 v 0.38756 c 0,0.30128 -0.25161,0.53967 -0.54711,0.53967 -0.022,0 -0.0439,-0.001 -0.0658,-0.004 -2.25137,-0.27202 -2.32598,-2.04019 -3.31634,-2.04019 -0.73583,0 -0.93771,0.97841 -0.99184,1.5912 -0.0249,0.27641 -0.25746,0.48555 -0.53541,0.48555 h -27.47869 c -0.27941,0 -0.51201,-0.2106 -0.53687,-0.48555 -0.0541,-0.61425 -0.25747,-1.5912 -0.9933,-1.5912 -0.98744,0 -1.06351,1.7667 -3.31342,2.04019 -0.0219,0.003 -0.0453,0.004 -0.0673,0.004 -0.2955,0 -0.54711,-0.23985 -0.54711,-0.54259 v -0.38318 c 0,-0.23546 0.15067,-0.44021 0.37596,-0.51333 0.46519,-0.15064 1.19956,-0.45776 1.19956,-0.8892 0,-0.1638 0,-3.04639 0,-7.23938 h -40.69433 v 7.23938 c 0,0.4329 0.73583,0.73856 1.20102,0.89066 0.22382,0.0717 0.3745,0.27495 0.3745,0.51041 v 0.38756 c 0,0.30128 -0.25308,0.53967 -0.54712,0.53967 -0.0219,0 -0.0439,-0.001 -0.0658,-0.004 -2.25283,-0.27202 -2.32597,-2.04019 -3.31634,-2.04019 -0.73583,0 -0.9377,0.97841 -0.99329,1.5912 -0.0249,0.27641 -0.25747,0.48555 -0.53395,0.48555 H 145.3969 c -0.27941,0 -0.51201,-0.2106 -0.53688,-0.48555 -0.0556,-0.61425 -0.25746,-1.5912 -0.99329,-1.5912 -0.98891,0 -1.06498,1.7667 -3.31342,2.04019 -0.0219,0.003 -0.0453,0.004 -0.0673,0.004 -0.29697,0 -0.54858,-0.23985 -0.54858,-0.54259 v -0.38318 c 0,-0.23546 0.15214,-0.44021 0.37596,-0.51333 0.46519,-0.15064 1.19956,-0.45776 1.19956,-0.8892 0,-0.1638 0,-3.04639 0,-7.23938 h -40.89474 v 9.59985 H 51.298722 v -9.59985 H 28.880126 c -9.494075,0 -17.190273,-7.69275 -17.190273,-17.18583 V 19.666238 c 0,-9.491625 7.696198,-17.185838 17.190273,-17.185838 z"
         fill="#fffffe"
         mask="url(#a)"
         id="path3"
         style="fill:#83ec06;fill-opacity:1;stroke:none;stroke-opacity:1" />
      <g
         stroke="#fffffe"
         id="g30"
         style="stroke:#83ec06;stroke-opacity:1">
        <path
           d="m 410.24495,302.89837 h 96.85565 c 0.89967,0 1.53602,1.52393 1.85054,2.4921 0.15214,0.46508 0.57784,0.77952 1.0679,0.77952 h 0.79581 c 0.67585,0 1.20102,-0.60694 1.11764,-1.27823 -0.5676,-4.67122 -4.23796,-4.82771 -4.23796,-6.88252 0,-1.52685 2.02755,-1.94805 3.30318,-2.06213 0.57491,-0.0512 1.00938,-0.53527 1.00938,-1.11296 v -57.07114 c 0,-0.57622 -0.43301,-1.05885 -1.00646,-1.11003 -1.27562,-0.11408 -3.3061,-0.53382 -3.3061,-2.06213 0,-2.05481 3.67329,-2.2113 4.23942,-6.88691 0.0819,-0.66983 -0.44179,-1.27384 -1.11471,-1.27384 h -0.80458 c -0.48714,0 -0.91138,0.31444 -1.06205,0.77659 -0.31452,0.96817 -0.95234,2.49502 -1.85201,2.49502 -1.31659,0 -96.85565,0 -96.85565,0 z M 387.11979,103.9194 H 507.1006 V 14.937975 H 387.11979 Z M 371.97462,22.361625 c 0,8.79255 -7.13007,15.920775 -15.92342,15.920775 -8.79629,0 -15.92489,-7.128225 -15.92489,-15.920775 0,-8.79255 7.1286,-15.920775 15.92489,-15.920775 8.79335,0 15.92342,7.128225 15.92342,15.920775 z m -7.84249,0 c 0,4.46355 -3.61916,8.080312 -8.08093,8.080312 -4.4647,0 -8.08386,-3.616762 -8.08386,-8.080312 0,-4.46355 3.61916,-8.080313 8.08386,-8.080313 4.46177,0 8.08093,3.616763 8.08093,8.080313 z m -316.657369,0 c 0,8.79255 -7.130065,15.920775 -15.924884,15.920775 -8.794819,0 -15.924883,-7.128225 -15.924883,-15.920775 0,-8.79255 7.130064,-15.920775 15.924883,-15.920775 8.794819,0 15.924884,7.128225 15.924884,15.920775 z m -7.842486,0 c 0,4.46355 -3.617696,8.080312 -8.082398,8.080312 -4.463239,0 -8.082398,-3.616762 -8.082398,-8.080312 0,-4.46355 3.619159,-8.080313 8.082398,-8.080313 4.464702,0 8.082398,3.616763 8.082398,8.080313 z m 7.842486,271.476565 c 0,8.79255 -7.130065,15.92077 -15.924884,15.92077 -8.794819,0 -15.924883,-7.12822 -15.924883,-15.92077 0,-8.79402 7.130064,-15.92078 15.924883,-15.92078 8.794819,0 15.924884,7.12676 15.924884,15.92078 z m -7.842486,0 c 0,4.46208 -3.617696,8.07885 -8.082398,8.07885 -4.463239,0 -8.082398,-3.61677 -8.082398,-8.07885 0,-4.46355 3.619159,-8.08178 8.082398,-8.08178 4.464702,0 8.082398,3.61823 8.082398,8.08178 z m 332.342345,0 c 0,8.79255 -7.13007,15.92077 -15.92342,15.92077 -8.79629,0 -15.92489,-7.12822 -15.92489,-15.92077 0,-8.79402 7.1286,-15.92078 15.92489,-15.92078 8.79335,0 15.92342,7.12676 15.92342,15.92078 z m -7.84249,0 c 0,4.46208 -3.61916,8.07885 -8.08093,8.07885 -4.46471,0 -8.08386,-3.61677 -8.08386,-8.07885 0,-4.46355 3.61915,-8.08178 8.08386,-8.08178 4.46177,0 8.08093,3.61823 8.08093,8.08178 z M 333.26395,32.041913 331.29638,35.9775 h -10.01047 l -1.96757,-3.935587 V 12.026138 l 1.96757,-3.9341255 h 10.01047 l 1.96757,3.9341255 z m -8.0941,-1.9656 h 2.78971 v -2.788988 h -2.78971 z m 0,-13.294125 h 2.78971 v -2.787525 h -2.78971 z m -5.85151,15.259725 -1.96757,3.935587 H 307.3403 l -1.96903,-3.935587 V 12.026138 l 1.96903,-3.9341255 h 10.01047 l 1.96757,3.9341255 z m -8.09556,-1.9656 h 2.78971 v -2.788988 h -2.78971 z m 0,-13.294125 h 2.78971 v -2.787525 h -2.78971 z m 58.77403,49.166325 -1.96904,3.935587 H 358.0173 l -1.9661,-3.935587 V 45.9342 l 1.9661,-3.935587 h 10.01047 l 1.96904,3.935587 z"
           mask="url(#a)"
           stroke-width="0.673"
           id="path4"
           style="stroke:#83ec06;stroke-opacity:1" />
        <path
           d="m 361.90271,63.98145 h 2.78824 v -2.788987 h -2.78824 z m 0,-13.2912 h 2.78824 v -2.788987 h -2.78824 z m -5.85151,15.258263 -1.96904,3.935587 h -10.01047 l -1.96903,-3.935587 V 45.9342 l 1.96903,-3.935587 h 10.01047 l 1.96904,3.935587 z m -8.09703,-1.967063 h 2.79117 v -2.788987 h -2.79117 z m 0,-13.2912 h 2.79117 v -2.788987 h -2.79117 z M 305.37127,32.041913 303.4037,35.9775 h -10.01047 l -1.96757,-3.935587 V 12.026138 l 1.96757,-3.9341255 h 10.01047 l 1.96757,3.9341255 z m -8.0941,-1.9656 h 2.78971 v -2.788988 h -2.78971 z m 0,-13.294125 h 2.78971 v -2.787525 h -2.78971 z m -5.85151,15.259725 -1.96903,3.935587 h -10.01047 l -1.96611,-3.935587 V 12.026138 l 1.96611,-3.9341255 h 10.01047 l 1.96903,3.9341255 z m -8.0941,-1.9656 h 2.78824 v -2.788988 h -2.78824 z m 0,-13.294125 h 2.78824 v -2.787525 h -2.78824 z m -5.85151,15.259725 -1.96903,3.935587 h -10.01047 l -1.96904,-3.935587 V 12.026138 l 1.96904,-3.9341255 h 10.01047 l 1.96903,3.9341255 z m -8.09703,-1.9656 h 2.79117 v -2.788988 h -2.79117 z m 0,-13.294125 h 2.79117 v -2.787525 h -2.79117 z m -5.85151,15.259725 -1.9661,3.935587 H 251.55347 L 249.5859,32.041913 V 12.026138 l 1.96757,-3.9341255 h 10.01194 l 1.9661,3.9341255 z m -8.0941,-1.9656 h 2.78971 v -2.788988 h -2.78971 z m 0,-13.294125 h 2.78971 v -2.787525 h -2.78971 z m -5.85151,15.259725 -1.96757,3.935587 h -10.01047 l -1.96757,-3.935587 V 12.026138 l 1.96757,-3.9341255 h 10.01047 l 1.96757,3.9341255 z"
           mask="url(#a)"
           stroke-width="0.673"
           id="path5"
           style="stroke:#83ec06;stroke-opacity:1" />
        <path
           d="m 241.4918,30.076312 h 2.78825 v -2.788987 h -2.78825 z m 0,-13.294125 h 2.78825 v -2.787525 h -2.78825 z m -5.85151,15.259725 -1.96903,3.935588 h -10.01047 l -1.96757,-3.935588 V 12.026137 l 1.96757,-3.9341245 h 10.01047 l 1.96903,3.9341245 z m -8.09556,-1.9656 h 2.78971 v -2.788987 h -2.78971 z m 0,-13.294125 h 2.78971 v -2.787525 h -2.78971 z m -5.85151,15.259725 -1.96757,3.935588 h -10.01193 l -1.96757,-3.935588 V 12.026137 l 1.96757,-3.9341245 h 10.01193 l 1.96757,3.9341245 z m -8.09556,-1.9656 h 2.7897 v -2.788987 h -2.7897 z m 0,-13.294125 h 2.7897 v -2.787525 h -2.7897 z m -5.85151,15.259725 -1.96757,3.935588 h -10.01047 l -1.96757,-3.935588 V 12.026137 l 1.96757,-3.9341245 h 10.01047 l 1.96757,3.9341245 z m -8.0941,-1.9656 h 2.7897 v -2.788987 h -2.7897 z m 0,-13.294125 h 2.7897 v -2.787525 h -2.7897 z m -5.85151,15.259725 -1.96904,3.935588 h -10.009 l -1.96904,-3.935588 V 12.026137 l 1.96904,-3.9341245 h 10.009 l 1.96904,3.9341245 z m -8.09557,-1.9656 h 2.78971 v -2.788987 h -2.78971 z m 0,-13.294125 h 2.78971 v -2.787525 h -2.78971 z m -5.85151,15.259725 -1.96757,3.935588 h -10.01047 l -1.96757,-3.935588 V 12.026137 l 1.96757,-3.9341245 h 10.01047 l 1.96757,3.9341245 z m -8.0941,-1.9656 h 2.78825 v -2.788987 h -2.78825 z m 0,-13.294125 h 2.78825 v -2.787525 h -2.78825 z m -5.85151,15.259725 -1.96903,3.935588 h -10.01047 l -1.96757,-3.935588 V 12.026137 l 1.96757,-3.9341245 h 10.01047 l 1.96903,3.9341245 z"
           mask="url(#a)"
           stroke-width="0.673"
           id="path6"
           style="stroke:#83ec06;stroke-opacity:1" />
        <path
           d="m 157.81229,30.076312 h 2.78971 v -2.788987 h -2.78971 z m 0,-13.294125 h 2.78971 v -2.787525 h -2.78971 z m -5.85151,15.259725 -1.96757,3.935588 h -10.01047 l -1.96903,-3.935588 V 12.026137 l 1.96903,-3.9341245 h 10.01047 l 1.96757,3.9341245 z m -8.0941,-1.9656 h 2.78824 v -2.788987 h -2.78824 z m 0,-13.294125 h 2.78824 v -2.787525 h -2.78824 z m -5.85297,15.259725 -1.96757,3.935588 H 126.03567 L 124.0681,32.041912 V 12.026137 l 1.96757,-3.9341245 h 10.01047 l 1.96757,3.9341245 z m -8.0941,-1.9656 h 2.7897 v -2.788987 h -2.7897 z m 0,-13.294125 h 2.7897 v -2.787525 h -2.7897 z m -5.85151,15.259725 -1.96904,3.935588 h -10.009 l -1.96904,-3.935588 V 12.026137 l 1.96904,-3.9341245 h 10.009 l 1.96904,3.9341245 z m -8.09557,-1.9656 h 2.78971 v -2.788987 h -2.78971 z m 0,-13.294125 h 2.78971 v -2.787525 h -2.78971 z m -5.85151,15.259725 -1.96757,3.935588 H 98.142983 l -1.96757,-3.935588 V 12.026137 l 1.96757,-3.9341245 h 10.010467 l 1.96757,3.9341245 z m -8.0941,-1.9656 h 2.78971 v -2.788987 h -2.78971 z m 0,-13.294125 h 2.78971 v -2.787525 h -2.78971 z M 96.175413,32.041912 94.20638,35.9775 H 84.19591 L 82.228339,32.041912 V 12.026137 L 84.19591,8.0920125 h 10.01047 l 1.969033,3.9341245 z m -8.095564,-1.9656 h 2.789707 v -2.788987 h -2.789707 z m 0,-13.294125 h 2.789707 v -2.787525 h -2.789707 z m -5.85151,15.259725 -1.96757,3.935588 h -10.01047 l -1.96757,-3.935588 V 12.026137 l 1.96757,-3.9341245 h 10.01047 l 1.96757,3.9341245 z"
           mask="url(#a)"
           stroke-width="0.673"
           id="path7"
           style="stroke:#83ec06;stroke-opacity:1" />
        <path
           d="m 74.134239,30.076312 h 2.789707 v -2.788987 h -2.789707 z m 0,-13.294125 h 2.789707 v -2.787525 h -2.789707 z m -5.85151,15.259725 -1.969033,3.935588 h -10.01047 l -1.96757,-3.935588 V 12.026137 l 1.96757,-3.9341245 h 10.01047 l 1.969033,3.9341245 z m -8.095564,-1.9656 h 2.789708 v -2.788987 h -2.789708 z m 0,-13.294125 h 2.789708 V 13.994662 H 60.187165 Z M 322.71807,202.58989 h 44.50219 v -44.49072 h -44.50219 z"
           mask="url(#a)"
           stroke-width="0.673"
           id="path8"
           style="stroke:#83ec06;stroke-opacity:1" />
        <path
           d="m 326.86164,156.46988 v 1.9755 m 2.22987,-1.9755 v 1.9755 m 2.22987,-1.9755 v 1.9755 m 2.22986,-1.9755 v 1.9755 m 2.2284,-1.9755 v 1.9755 m 2.22987,-1.9755 v 1.9755 m 2.22987,-1.9755 v 1.9755 m 2.22986,-1.9755 v 1.9755 m 2.2284,-1.9755 v 1.9755 m 2.22987,-1.9755 v 1.9755 m 2.22987,-1.9755 v 1.9755 m 2.22986,-1.9755 v 1.9755 m 2.22987,-1.9755 v 1.9755 m 2.2284,-1.9755 v 1.9755 m 2.22986,-1.9755 v 1.9755 m 2.2284,-1.9755 v 1.9755 m 2.23134,-1.9755 v 1.9755 m -35.67347,44.68153 v 1.9755 m 2.22987,-1.9755 v 1.9755 m 2.22987,-1.9755 v 1.9755 m 2.22986,-1.9755 v 1.9755 m 2.2284,-1.9755 v 1.9755 m 2.22987,-1.9755 v 1.9755 m 2.22987,-1.9755 v 1.9755 m 2.22986,-1.9755 v 1.9755 m 2.2284,-1.9755 v 1.9755 m 2.22987,-1.9755 v 1.9755 m 2.22987,-1.9755 v 1.9755 m 2.22986,-1.9755 v 1.9755 m 2.22987,-1.9755 v 1.9755 m 2.2284,-1.9755 v 1.9755 m 2.22986,-1.9755 v 1.9755 m 2.2284,-1.9755 v 1.9755 m 2.23134,-1.9755 v 1.9755 m 6.48248,-42.14937 h -1.97721 m 1.97721,2.22813 h -1.97721 m 1.97721,2.2296 h -1.97721 m 1.97721,2.22959 h -1.97721 m 1.97721,2.22813 h -1.97721 m 1.97721,2.23107 h -1.97721 m 1.97721,2.22813 h -1.97721 m 1.97721,2.22959 h -1.97721 m 1.97721,2.22813 h -1.97721 m 1.97721,2.23107 h -1.97721 m 1.97721,2.22812 h -1.97721 m 1.97721,2.2296 h -1.97721 m 1.97721,2.2296 h -1.97721 m 1.97721,2.22813 h -1.97721 m 1.97721,2.23106 h -1.97721 m 1.97721,2.22813 h -1.97721 m 1.97721,2.2296 h -1.97721 m -44.68694,-35.66768 h -1.97427 m 1.97427,2.22813 h -1.97427 m 1.97427,2.2296 h -1.97427 m 1.97427,2.22959 h -1.97427 m 1.97427,2.22813 h -1.97427 m 1.97427,2.23107 h -1.97427 m 1.97427,2.22813 h -1.97427 m 1.97427,2.22959 h -1.97427 m 1.97427,2.22813 h -1.97427 m 1.97427,2.23107 h -1.97427 m 1.97427,2.22812 h -1.97427 m 1.97427,2.2296 h -1.97427 m 1.97427,2.2296 h -1.97427"
           stroke-linecap="round"
           stroke-width="0.673"
           id="path9"
           style="stroke:#83ec06;stroke-opacity:1" />
        <path
           d="m 322.49388,191.35843 h -2.11472 m 2.11472,2.31319 h -2.11472 m 2.11472,2.31014 h -2.11472 m 2.11472,2.31167 h -2.11472"
           stroke-linecap="round"
           stroke-width="0.673"
           id="path10"
           style="stroke:#83ec06;stroke-opacity:1" />
        <path
           d="m 322.49388,118.40964 h 32.77807 V 85.635542 h -32.77807 z"
           stroke-width="0.673"
           id="path11"
           style="stroke:#83ec06;stroke-opacity:1" />
        <path
           d="m 328.85783,84.99277 v 0.978701 z m 2.80761,0 v 0.978701 z m 2.80907,0 v 0.978701 z m 2.80908,0 v 0.978701 z m 2.80761,0 v 0.978701 z m 2.8076,0 v 0.978701 z m 2.80761,0 v 0.978701 z m 2.8076,0 v 0.978701 z m 2.80761,0 v 0.978701 z m -22.46379,34.13381 v 0.9787 z m 2.80761,0 v 0.9787 z m 2.80907,0 v 0.9787 z m 2.80908,0 v 0.9787 z m 2.80761,0 v 0.9787 z m 2.8076,0 v 0.9787 z m 2.80761,0 v 0.9787 z m 2.8076,0 v 0.9787 z m 2.80761,0 v 0.9787 z m 6.50554,-27.695911 h -0.98876 z m 0,2.780497 h -0.98876 z m 0,2.779044 h -0.98876 z m 0,2.779043 h -0.98876 z m 0,2.780497 h -0.98876 z m 0,2.77904 h -0.98876 z m 0,2.77905 h -0.98876 z m 0,2.78049 h -0.98876 z m 0,2.77905 h -0.98876 z m -34.4861,-22.236711 h -0.98582 z m 0,2.780497 h -0.98582 z m 0,2.779044 h -0.98582 z m 0,2.779043 h -0.98582 z m 0,2.780497 h -0.98582 z m 0,2.77904 h -0.98582 z m 0,2.77905 h -0.98582 z m 0,2.78049 h -0.98582 z m 0,2.77905 h -0.98582 z m 55.19274,-29.201043 -3.96091,3.920618 -9.49973,-9.403084 3.95944,-3.920618 z m -8.0232,-9.323101 -0.69933,0.692216 z m 1.98633,1.964672 -0.69933,0.692215 z m 1.98487,1.964671 -0.69933,0.692216 z m 1.98633,1.966126 -0.69933,0.692216 z m 1.98486,1.966126 -0.69786,0.690761 z m -12.60263,-3.250216 -0.69934,0.692216 z m 1.98633,1.966126 -0.69933,0.690762 z m 1.98486,1.964672 -0.69786,0.692216 z m 1.98634,1.964671 -0.69933,0.692216 z m 1.98486,1.966126 -0.69786,0.692216 z m 4.74105,15.06878 -3.96091,3.92062 -9.49973,-9.404536 3.95944,-3.920618 z m -8.0232,-9.324551 -0.69933,0.692216 z m 1.98633,1.964672 -0.69933,0.692215 z m 1.98487,1.966125 -0.69933,0.690762 z m 1.98633,1.964672 -0.69933,0.692216 z m 1.98486,1.966122 -0.69786,0.69222 z m -12.60263,-3.248757 -0.69934,0.690761 z m 1.98633,1.964671 -0.69933,0.692216 z m 1.98486,1.964676 -0.69786,0.69221 z m 1.98634,1.96612 -0.69933,0.69076 z m 1.98486,1.96467 -0.69786,0.69222 z m -139.0595,67.55213 h 56.67808 V 93.360439 h -56.67808 z"
           stroke-linecap="round"
           stroke-width="0.673"
           id="path12"
           style="stroke:#83ec06;stroke-opacity:1" />
        <path
           d="m 210.14062,173.38554 h -69.01758 c -3.06991,0 -5.56021,-2.49006 -5.56021,-5.56113 V 98.814872 c 0,-3.071071 2.4903,-5.561128 5.56021,-5.561128 h 69.01758 c 3.06991,0 5.5602,2.490057 5.5602,5.561128 v 69.009538 c 0,3.07107 -2.49029,5.56113 -5.5602,5.56113 z m -4.97185,-5.77227 h -59.07388 c -2.6301,0 -4.76069,-2.13038 -4.76069,-4.75878 v -59.0697 c 0,-2.62839 2.13059,-4.760229 4.76069,-4.760229 h 59.07388 c 2.6301,0 4.76069,2.131839 4.76069,4.760229 v 59.0697 c 0,2.6284 -2.13059,4.75878 -4.76069,4.75878 z m -3.65244,-4.24038 h -51.76901 c -2.30389,0 -4.17088,-1.86827 -4.17088,-4.17194 v -51.76407 c 0,-2.30367 1.86699,-4.17048 4.17088,-4.17048 h 51.76901 c 2.30389,0 4.17089,1.86681 4.17089,4.17048 v 51.76407 c 0,2.30367 -1.867,4.17194 -4.17089,4.17194 z M 48.638421,113.42175 H 109.72784 V 41.231928 H 48.638421 Z"
           stroke-linecap="round"
           stroke-width="0.673"
           id="path13"
           style="stroke:#83ec06;stroke-opacity:1" />
        <path
           d="m 358.47154,136.395 h 6.76434 v -10.8633 h -6.76434 z m -17.5234,125.17803 h 10.85138 v -6.77178 h -10.85138 z m 42.39437,-32.95225 h 10.84991 v -6.77323 h -10.84991 z m 0,-9.88039 h 10.84991 v -6.77177 h -10.84991 z m -35.68132,4.2397 v -8.75666 c 0,-1.2455 1.0082,-2.25481 2.25381,-2.25481 h 12.15412 c 1.24414,0 2.25234,1.00931 2.25234,2.25481 v 8.75666 c 0,1.24403 -1.0082,2.25481 -2.25234,2.25481 H 349.915 c -1.24561,0 -2.25381,-1.01078 -2.25381,-2.25481 z m -6.71305,50.86017 h 10.85138 v -6.77324 h -10.85138 z m 37.82961,-126.79468 h 24.07526 V 108.85754 H 378.77775 Z M 278.08489,88.179866 h 10.85284 v -6.77324 H 278.08489 Z M 348.22977,136.395 h 5.03076 v -8.87695 h -5.03076 z m -14.51637,0 h 5.03222 v -8.87695 h -5.03222 z m 57.68448,108.02267 h 5.03076 v -8.87695 h -5.03076 z m -17.83553,24.12077 h 5.03076 v -8.87694 h -5.03076 z M 341.31156,136.395 h 3.18141 v -6.12042 h -3.18141 z m 17.79303,124.85235 h 3.18141 v -6.12042 h -3.18141 z m 26.02426,40.06289 h 3.18141 v -6.12041 h -3.18141 z m -72.42946,-74.60832 h 3.18141 v -6.12188 h -3.18141 z m 0,10.52295 h 3.18141 v -6.11895 h -3.18141 z m 18.12568,-10.52295 h 3.18141 v -6.12188 h -3.18141 z m 0,10.52295 h 3.18141 v -6.11895 h -3.18141 z m 60.18594,64.08537 h 3.18141 v -6.12041 h -3.18141 z m 5.88217,0 h 3.18141 v -6.12041 h -3.18141 z"
           stroke-width="0.673"
           id="path14"
           style="stroke:#83ec06;stroke-opacity:1" />
        <path
           d="m 359.24897,272.76506 h 3.16784 v -6.10353 h -3.16784 z m 40.43766,-15.2932 h 3.16638 v -6.10207 h -3.16638 z m 0,12.229 h 3.16638 v -6.10353 h -3.16638 z m -71.7512,-136.39268 h 3.16491 v -6.10207 h -3.16491 z m -156.6436,57.69762 h 3.16783 v -6.10061 h -3.16783 z m 126.92783,-40.83502 h 6.73548 v -10.82927 h -6.73548 z m 63.76669,-29.64301 h 6.08761 v -3.17536 h -6.08761 z m -50.77872,48.83411 h 3.45529 v -1.73175 h -3.45529 z m 0,3.36989 h 3.45529 v -1.73175 h -3.45529 z m 64.94278,3.04372 h 3.45528 v -1.73175 h -3.45528 z M 181.4359,195.21816 h 1.72764 v -3.46349 h -1.72764 z m 194.71451,-16.07132 h 3.45528 v -1.73175 h -3.45528 z m 0,16.86114 h 3.45528 v -1.73175 h -3.45528 z m 0,3.37135 h 3.45528 v -1.73321 h -3.45528 z m 0,6.57742 h 3.45528 V 204.225 h -3.45528 z m -64.94278,-29.85363 h 3.45529 v -1.73175 h -3.45529 z m 0,3.37135 h 3.45529 v -1.73321 h -3.45529 z m 0,3.36989 h 3.45529 v -1.73175 h -3.45529 z m 0,3.36988 h 3.45529 v -1.73174 h -3.45529 z m -11.129,23.52486 h 16.55561 v -10.35977 h -16.55561 z"
           stroke-width="0.673"
           id="path15"
           style="stroke:#83ec06;stroke-opacity:1" />
        <path
           d="m 300.21588,201.93072 h -0.98385 m 0.98385,2.70062 h -0.98385 m 0.98385,2.70063 h -0.98385 m 0.98385,2.70061 h -0.98385 m 18.55438,-8.10186 h -0.98385 m 0.98385,2.70062 h -0.98385 m 0.98385,2.70063 h -0.98385 m 0.98385,2.70061 h -0.98385"
           stroke-linecap="round"
           stroke-width="0.673"
           id="path16"
           style="stroke:#83ec06;stroke-opacity:1" />
        <path
           d="m 293.94524,237.87651 h 10.57357 v -16.91567 h -10.57357 z"
           stroke-width="0.673"
           id="path17"
           style="stroke:#83ec06;stroke-opacity:1" />
        <path
           d="M 375.36173,246.33434 H 385.9353 V 233.64759 H 375.36173 Z"
           stroke-width="0.582"
           id="path18"
           style="stroke:#83ec06;stroke-opacity:1" />
        <path
           d="m 387.63542,290.73795 h 7.81609 v -16.15806 h -7.81609 z m -45.05176,-40.46038 h 6.34287 v -16.62998 h -6.34287 z"
           stroke-width="0.673"
           id="path19"
           style="stroke:#83ec06;stroke-opacity:1" />
        <path
           d="m 303.10565,220.88596 v -0.98235 m -2.70055,0.98235 v -0.98235 m -2.70054,0.98235 v -0.98235 m -2.70196,0.98235 v -0.98235 m 8.10305,18.55211 v -0.98382 m -2.70055,0.98382 v -0.98382 m -2.70054,0.98382 v -0.98382 m -2.70196,0.98382 v -0.98382"
           stroke-linecap="round"
           stroke-width="0.673"
           id="path20"
           style="stroke:#83ec06;stroke-opacity:1" />
        <path
           d="m 24.949305,97.551262 h 16.59834 v 16.813128 h -7.878421 v 91.11533 h 7.878421 v 17.02086 h -16.59834 v -24.89419 l -5.916879,-5.90281 v -63.56306 l 5.916879,-5.9028 z M 37.491153,205.47972 h 4.056492 V 114.36438 H 37.491153 Z M 229.1388,77.364689 h 6.11626 V 74.190194 H 229.1388 Z M 114.26837,46.522344 h 6.11626 v -3.175959 h -6.11626 z m 0,5.494657 h 6.11626 v -3.175959 h -6.11626 z M 229.1388,82.506787 h 3.47155 v -1.732075 h -3.47155 z m 37.01568,7.04972 h 3.47155 v -1.732075 h -3.47155 z m -9.11868,0 h 3.47155 v -1.732075 h -3.47155 z m -123.39097,0 h 3.47155 v -1.732075 h -3.47155 z M 122.3667,233.33336 h 6.76864 v -10.83278 h -6.76864 z m -11.62705,0 h 6.76864 v -10.83278 h -6.76864 z m -36.523092,-6.95317 h 6.767174 v -10.83132 h -6.767174 z m -46.748622,44.18254 h 6.76864 v -10.83132 h -6.76864 z m 10.696123,2.16363 H 49.722204 V 257.56632 H 38.164059 Z m 0,-34.48351 H 49.083017 V 224.43014 H 38.164059 Z m -10.696123,-2.27481 h 7.322798 v -9.26309 H 27.467936 Z M 86.30687,272.72636 H 97.865015 V 257.56632 H 86.30687 Z m 29.53162,8.49653 H 133.875 v -23.65657 h -18.03651 z m -80.278093,-34.681 h 8.870921 v -5.02214 h -8.870921 z m 0,7.73729 h 8.870921 v -5.02214 h -8.870921 z"
           stroke-width="0.673"
           id="path21"
           style="stroke:#83ec06;stroke-opacity:1" />
        <path
           d="m 55.565403,227.71527 h 8.74513 v -4.97219 h -8.74513 z m 36.560424,17.91613 h 8.745133 v -4.97219 h -8.745133 z m 0,7.66034 h 8.745133 v -4.97219 h -8.745133 z m 7.588749,13.96213 h 4.963764 v -8.76399 h -4.963764 z m -82.796864,8.68288 h 4.963764 v -8.76399 h -4.963764 z m 0,-20.74911 h 4.963764 v -8.76399 h -4.963764 z m 63.087799,18.71417 h 3.136683 v -6.04398 h -3.136683 z m -9.210573,-1.4498 h 6.030526 v -3.14438 h -6.030526 z m -10.858415,0 h 6.030526 v -3.14438 H 59.936523 Z M 54.316512,261.26058 H 81.880294 V 233.64194 H 54.316512 Z M 50.49901,218.40381 h 14.521252 v -9.07248 H 50.49901 Z"
           stroke-width="0.673"
           id="path22"
           style="stroke:#83ec06;stroke-opacity:1" />
        <path
           d="m 57.88925,232.59036 v 0.96049 m 2.727656,-0.96049 v 0.96049 m 2.727657,-0.96049 v 0.96049 m 2.727657,-0.96049 v 0.96049 m 2.729084,-0.96049 v 0.96049 m 2.727657,-0.96049 v 0.96049 m 2.727657,-0.96049 v 0.96049 m 2.729084,-0.96049 v 0.96049 M 57.88925,260.7656 v 0.95906 m 2.727656,-0.95906 v 0.95906 m 2.727657,-0.95906 v 0.95906 m 2.727657,-0.95906 v 0.95906 m 2.729084,-0.95906 v 0.95906 m 2.727657,-0.95906 v 0.95906 m 2.727657,-0.95906 v 0.95906 m 2.729084,-0.95906 v 0.95906 m 5.021401,-24.11351 h -0.960604 m 0.960604,2.72733 h -0.960604 m 0.960604,2.72733 h -0.960604 m 0.960604,2.72875 h -0.960604 m 0.960604,2.72733 h -0.960604 m 0.960604,2.72732 h -0.960604 m 0.960604,2.72876 h -0.960604 m 0.960604,2.72732 H 81.046499 M 53.827025,237.61115 h -0.959176 m 0.959176,2.72733 h -0.959176 m 0.959176,2.72733 h -0.959176 m 0.959176,2.72875 h -0.959176 m 0.959176,2.72733 h -0.959176 m 0.959176,2.72732 h -0.959176 m 0.959176,2.72876 h -0.959176 m 0.959176,2.72732 h -0.959176"
           stroke-linecap="round"
           stroke-width="0.673"
           id="path23"
           style="stroke:#83ec06;stroke-opacity:1" />
        <g
           stroke-width="0.673"
           transform="translate(186.09483,125.81024)"
           id="g25"
           style="stroke:#83ec06;stroke-opacity:1">
          <path
             d="m 94.694312,184.94267 c -0.22782,0 -16.534484,0 -16.534484,0 v -16.83881 h 7.848111 V 76.849321 H 78.159828 V 59.802462 h 16.534484 v 24.932221 l 5.894118,5.911825 v 63.660162 l -5.894118,5.91183 z M 78.159828,168.10386 h 4.040886 V 76.849321 H 78.159828 Z M 199.35867,81.713572 h 6.09273 v -3.18081 h -6.09273 z m -4.61773,57.894858 h 16.10074 v -7.88976 h -16.10074 z m -62.6666,-38.44664 h 10.28111 v -6.114014 h -10.28111 z m 0.41183,10.50209 h 1.72909 v -3.4709 h -1.72909 z m 3.86418,0 h 1.72909 v -3.4709 h -1.72909 z m 3.69477,0 h 1.72764 v -3.4709 h -1.72764 z M 0.9419486,158.50575 h 6.354137 v -6.37627 h -6.354137 z m 11.5954604,0 h 6.355597 v -6.37627 H 12.537409 Z M 0.18692933,181.41902 H 8.0511049 V 165.26589 H 0.18692933 Z M 301.79011,151.10535 295.28263,147.7707 c -0.3943,-0.20219 -0.83242,-0.30768 -1.27638,-0.30768 h -4.99744 c -0.62066,0 -1.12449,0.50547 -1.12449,1.12962 v 1.34939 c 0,0.62268 0.50383,1.12816 1.12449,1.12816 h 3.89777 c 0.36218,0 0.72289,0.0703 1.05878,0.20805 l 6.91347,2.82185 c 0.33589,0.13772 0.69514,0.20805 1.05878,0.20805 h 9.27198 c 0.62067,0 1.1245,0.50547 1.1245,1.12962 v 6.14771 c 0,0.62415 -0.50383,1.12815 -1.1245,1.12815 h -9.27198 c -0.36364,0 -0.72289,0.0703 -1.05878,0.20805 l -6.91347,2.82332 c -0.33589,0.13626 -0.6966,0.20658 -1.05878,0.20658 h -3.89777 c -0.62066,0 -1.12449,0.50548 -1.12449,1.12962 v 1.34939 c 0,0.62415 0.50383,1.12816 1.12449,1.12816 h 4.99744 c 0.44396,0 0.88208,-0.10549 1.27638,-0.30768 l 6.50748,-3.33318 c 0.39576,-0.20366 0.83388,-0.30915 1.27637,-0.30915 h 12.43957 c 1.2165,0 2.20372,-0.99043 2.20372,-2.21089 v -9.77392 c 0,-1.22046 -0.98722,-2.21089 -2.20372,-2.21089 h -12.43957 c -0.44249,0 -0.88061,-0.10549 -1.27637,-0.30768 z m 0,-35.46509 -6.50748,-3.33465 c -0.3943,-0.20218 -0.83242,-0.30767 -1.27638,-0.30767 h -4.99744 c -0.62066,0 -1.12449,0.50547 -1.12449,1.12962 v 1.34939 c 0,0.62268 0.50383,1.12815 1.12449,1.12815 h 3.89777 c 0.36218,0 0.72289,0.0703 1.05878,0.20805 l 6.91347,2.82185 c 0.33589,0.13773 0.69514,0.20805 1.05878,0.20805 h 9.27198 c 0.62067,0 1.1245,0.50547 1.1245,1.12962 v 6.14771 c 0,0.62415 -0.50383,1.12816 -1.1245,1.12816 h -9.27198 c -0.36364,0 -0.72289,0.0703 -1.05878,0.20805 l -6.91347,2.82332 c -0.33589,0.13625 -0.6966,0.20658 -1.05878,0.20658 h -3.89777 c -0.62066,0 -1.12449,0.50547 -1.12449,1.12962 v 1.34939 c 0,0.62268 0.50383,1.12815 1.12449,1.12815 h 4.99744 c 0.44396,0 0.88208,-0.10549 1.27638,-0.30767 l 6.50748,-3.33319 c 0.39576,-0.20365 0.83388,-0.30914 1.27637,-0.30914 h 12.43957 c 1.2165,0 2.20372,-0.99044 2.20372,-2.21089 v -9.77393 c 0,-1.22046 -0.98722,-2.21089 -2.20372,-2.21089 h -12.43957 c -0.44249,0 -0.88061,-0.10549 -1.27637,-0.30768 z"
             id="path24"
             style="stroke:#83ec06;stroke-opacity:1" />
          <path
             d="m 224.07716,76.953345 h 96.69066 c 0.89813,0 1.5334,1.526672 1.84738,2.495127 0.15188,0.467379 0.57686,0.782383 1.06609,0.782383 h 0.79445 c 0.67469,0 1.19897,-0.608032 1.11573,-1.280529 -0.56663,-4.679645 -4.23074,-4.836415 -4.23074,-6.894931 0,-1.529602 2.0241,-1.951561 3.29755,-2.065842 0.57393,-0.05128 1.00767,-0.53624 1.00767,-1.114968 V 11.700577 c 0,-0.577263 -0.43227,-1.060758 -1.00475,-1.112038 -1.27345,-0.114281 -3.30047,-0.534775 -3.30047,-2.0658421 0,-2.0599814 3.66703,-2.2152858 4.2322,-6.9007912 0.0818,-0.66956721 -0.44104,-1.27466844 -1.11281,-1.27466844 h -0.80322 c -0.4863,0 -0.90982,0.31353914 -1.06024,0.77798734 -0.31398,0.9684549 -0.95071,2.4995222 -1.84884,2.4995222 -1.31435,0 -96.69066,0 -96.69066,0 z m 96.10066,-58.680167 v 9.700666 c 0,0.571403 -0.42643,1.051968 -0.9916,1.119364 l -31.10475,3.674562 c -0.67324,0.08058 -1.26615,-0.448332 -1.26615,-1.128155 v -0.921571 c 0,-0.584589 0.44249,-1.07541 1.02373,-1.131085 l 24.45269,-2.383776 c 1.15078,-0.112816 2.02848,-1.084201 2.02848,-2.244589 v -3.670166 c 0,-1.160388 -0.8777,-2.131773 -2.02848,-2.244588 l -24.45269,-2.383777 c -0.58124,-0.05568 -1.02373,-0.545031 -1.02373,-1.131085 v -0.921571 c 0,-0.679823 0.59291,-1.208737 1.26615,-1.12962 l 31.10475,3.676027 c 0.56517,0.0674 0.9916,0.547961 0.9916,1.119364 z m 0,34.251952 v 9.700667 c 0,0.572868 -0.42643,1.053433 -0.9916,1.119364 l -31.10475,3.676026 c -0.67324,0.08058 -1.26615,-0.448331 -1.26615,-1.12962 v -0.92157 c 0,-0.58459 0.44249,-1.073945 1.02373,-1.131085 l 24.45269,-2.383777 c 1.15078,-0.11135 2.02848,-1.082735 2.02848,-2.243123 v -3.671631 c 0,-1.160388 -0.8777,-2.130308 -2.02848,-2.243124 l -24.45269,-2.383776 c -0.58124,-0.05714 -1.02373,-0.546496 -1.02373,-1.131085 v -0.921571 c 0,-0.679823 0.59291,-1.208737 1.26615,-1.12962 l 31.10475,3.676027 c 0.56517,0.0674 0.9916,0.54796 0.9916,1.117898 z m -33.3625,-10.006879 v -4.45841 c 0,-0.378005 0.28331,-0.697404 0.65863,-0.742824 l 20.6148,-2.435056 c 0.44688,-0.05274 0.83826,0.297423 0.83826,0.748685 v 0.610961 c 0,0.386796 -0.29354,0.712057 -0.67908,0.748685 l -16.20443,1.580882 c -0.76379,0.07472 -1.34502,0.717917 -1.34502,1.487113 v 0.461518 c 0,0.769196 0.58123,1.412391 1.34502,1.487113 l 16.20443,1.579417 c 0.38554,0.03809 0.67908,0.361888 0.67908,0.75015 v 0.610961 c 0,0.451262 -0.39138,0.799965 -0.83826,0.748685 l -20.6148,-2.436522 c -0.37532,-0.04395 -0.65863,-0.363353 -0.65863,-0.741358 z"
             id="path25"
             style="stroke:#83ec06;stroke-opacity:1" />
        </g>
        <path
           d="m 270.68339,209.18418 h -1.67847 m 1.67847,5.56808 h -1.67847 m 1.67847,5.56662 h -1.67847 m 1.67847,5.56808 h -1.67847 m 1.67847,5.56662 h -1.67847 m 1.67847,5.56808 h -1.67847 m 1.67847,5.56662 h -1.67847 m 1.67847,5.56662 h -1.67847 m 1.67847,5.56663 h -1.67847 m 1.67847,5.60603 h -1.67847 m 1.67847,5.56662 h -1.67847 m 1.67847,5.56808 h -1.67847 m 1.67847,5.56663 h -1.67847 m 1.67847,5.56808 h -1.67847 m 1.67847,5.56662 h -1.67847 M 37.628606,120.5241 h -1.678469 m 1.678469,5.56808 h -1.678469 m 1.678469,5.56662 h -1.678469 m 1.678469,5.56808 h -1.678469 m 1.678469,5.56662 h -1.678469 m 1.678469,5.56662 h -1.678469 m 1.678469,5.56808 h -1.678469 m 1.678469,5.56662 h -1.678469 m 1.678469,5.56808 h -1.678469 m 1.678469,5.60458 h -1.678469 m 1.678469,5.56662 h -1.678469 m 1.678469,5.56808 h -1.678469 m 1.678469,5.56663 h -1.678469 m 1.678469,5.56662 h -1.678469 m 1.678469,5.56808 h -1.678469"
           stroke-linecap="round"
           stroke-width="0.673"
           id="path26"
           style="stroke:#83ec06;stroke-opacity:1" />
        <path
           d="m 216.93997,278.0512 v 43.08591 c 0,0.43408 -0.73453,0.74309 -1.19982,0.89612 -0.22534,0.0721 -0.37604,0.27958 -0.37604,0.51501 v 0.38699 c 0,0.32814 0.29117,0.57976 0.61454,0.5415 2.25039,-0.27516 2.32648,-2.05269 3.31414,-2.05269 0.73598,0 0.93937,0.98294 0.99497,1.59801 0.0234,0.28105 0.25606,0.49 0.53553,0.49 h 27.48467 c 0.278,0 0.51065,-0.20895 0.53552,-0.48853 0.0541,-0.61654 0.25606,-1.59948 0.99205,-1.59948 0.99058,0 1.06521,1.779 3.31707,2.05269 0.32336,0.0383 0.61307,-0.21189 0.61307,-0.54002 v -0.38994 c 0,-0.23544 -0.1507,-0.44144 -0.37311,-0.51354 -0.46676,-0.15156 -1.20275,-0.46057 -1.20275,-0.89612 0,-0.63715 0,-43.0859 0,-43.0859 z m 28.20895,37.42666 h -4.66467 c -0.27362,0 -0.5048,-0.20748 -0.53699,-0.48264 l -1.76755,-15.08544 c -0.038,-0.32666 0.21656,-0.6136 0.54285,-0.6136 h 0.44335 c 0.28093,0 0.51651,0.21484 0.54431,0.49589 l 1.14568,11.85999 c 0.0541,0.55915 0.5209,0.98441 1.07837,0.98441 h 1.76462 c 0.55748,0 1.02424,-0.42526 1.07837,-0.98441 l 1.14715,-11.85999 c 0.0263,-0.28105 0.26191,-0.49589 0.54284,-0.49589 h 0.44335 c 0.32776,0 0.58089,0.28694 0.54285,0.6136 l -1.76754,15.08544 c -0.0307,0.27516 -0.26338,0.48264 -0.53699,0.48264 z m -16.46681,0 h -4.6632 c -0.27508,0 -0.50627,-0.20748 -0.53846,-0.48264 l -1.76608,-15.08544 c -0.0395,-0.32666 0.21509,-0.6136 0.54139,-0.6136 h 0.44481 c 0.27947,0 0.51651,0.21484 0.54284,0.49589 l 1.14569,11.85999 c 0.0541,0.55915 0.52089,0.98441 1.07837,0.98441 h 1.76608 c 0.55748,0 1.02424,-0.42526 1.07691,-0.98441 l 1.14715,-11.85999 c 0.0263,-0.28105 0.26191,-0.49589 0.54284,-0.49589 h 0.44335 c 0.32776,0 0.58089,0.28694 0.54285,0.6136 l -1.76608,15.08544 c -0.0322,0.27516 -0.26338,0.48264 -0.53846,0.48264 z M 140.98548,278.0512 v 43.08591 c 0,0.43408 -0.73452,0.74309 -1.19982,0.89612 -0.22387,0.0721 -0.37604,0.27958 -0.37604,0.51501 v 0.38699 c 0,0.32814 0.29264,0.57976 0.61601,0.5415 2.25039,-0.27516 2.32501,-2.05269 3.31413,-2.05269 0.73599,0 0.93791,0.98294 0.99351,1.59801 0.0249,0.28105 0.25753,0.49 0.537,0.49 h 27.48466 c 0.27655,0 0.5092,-0.20895 0.53407,-0.48853 0.0556,-0.61654 0.25752,-1.59948 0.99351,-1.59948 0.99058,0 1.06521,1.779 3.31706,2.05269 0.32191,0.0383 0.61308,-0.21189 0.61308,-0.54002 v -0.38994 c 0,-0.23544 -0.15071,-0.44144 -0.37458,-0.51354 -0.46529,-0.15156 -1.20128,-0.46057 -1.20128,-0.89612 0,-0.63715 0,-43.0859 0,-43.0859 z m 28.20895,37.42666 h -4.6632 c -0.27362,0 -0.50627,-0.20748 -0.53846,-0.48264 l -1.76608,-15.08544 c -0.038,-0.32666 0.21509,-0.6136 0.54285,-0.6136 h 0.44335 c 0.28093,0 0.51651,0.21484 0.54284,0.49589 l 1.14715,11.85999 c 0.0541,0.55915 0.5209,0.98441 1.07691,0.98441 h 1.76608 c 0.55747,0 1.02423,-0.42526 1.07837,-0.98441 l 1.14568,-11.85999 c 0.0263,-0.28105 0.26338,-0.49589 0.54431,-0.49589 h 0.44335 c 0.32629,0 0.58089,0.28694 0.54138,0.6136 l -1.76607,15.08544 c -0.0322,0.27516 -0.26338,0.48264 -0.53846,0.48264 z m -16.46534,0 h -4.66467 c -0.27361,0 -0.5048,-0.20748 -0.53699,-0.48264 l -1.76754,-15.08544 c -0.038,-0.32666 0.21509,-0.6136 0.54285,-0.6136 h 0.44334 c 0.28094,0 0.51651,0.21484 0.54285,0.49589 l 1.14714,11.85999 c 0.0541,0.55915 0.5209,0.98441 1.07838,0.98441 h 1.76461 c 0.55748,0 1.02424,-0.42526 1.07838,-0.98441 l 1.14714,-11.85999 c 0.0263,-0.28105 0.26192,-0.49589 0.54285,-0.49589 h 0.44335 c 0.32629,0 0.58089,0.28694 0.54284,0.6136 l -1.76754,15.08544 c -0.0322,0.27516 -0.26337,0.48264 -0.53699,0.48264 z M 50.753135,323.51205 H 100.08185 V 282.02268 H 50.753135 Z m 39.48726,-31.79684 v -0.10742 c 0,-0.59594 -0.481391,-1.08005 -1.073985,-1.08005 h -3.315602 c -0.594057,0 -1.073985,-0.48264 -1.073985,-1.08006 v -0.11477 c 0,-0.59594 0.479928,-1.07858 1.073985,-1.07858 h 3.315602 c 0.592594,0 1.073985,-0.48559 1.073985,-1.08153 v -0.11036 c 0,-0.59594 -0.481391,-1.08005 -1.073985,-1.08005 h -5.666957 c -0.488707,0 -0.88377,0.39729 -0.88377,0.88876 v 5.03535 c 0,0.49147 0.395063,0.88876 0.88377,0.88876 h 5.666957 c 0.592594,0 1.073985,-0.48411 1.073985,-1.08005 z"
           stroke-width="0.673"
           id="path27"
           style="stroke:#83ec06;stroke-opacity:1" />
        <path
           d="m 61.326705,287.51466 v 0.10001 c 0,0.55488 0.467299,1.00563 1.042545,1.00563 h 3.218537 c 0.575246,0 1.042544,0.45075 1.042544,1.00562 v 0.10686 c 0,0.55488 -0.467299,1.00563 -1.042544,1.00563 H 62.36925 c -0.575246,0 -1.042545,0.45075 -1.042545,1.00562 v 0.10276 c 0,0.55487 0.467299,1.00562 1.042545,1.00562 h 5.501056 c 0.47298,0 0.857898,-0.36992 0.857898,-0.82752 v -4.68834 c 0,-0.4576 -0.384918,-0.82751 -0.857898,-0.82751 H 62.36925 c -0.575246,0 -1.042545,0.45075 -1.042545,1.00562 z"
           stroke-width="0.673"
           id="path28"
           style="stroke:#83ec06;stroke-opacity:1" />
        <path
           d="M 103.78174,234.70482 H 87.598423 l -1.952508,-1.95326 v -14.06637 l 1.952508,-1.95326 h 16.183317 l 1.95396,1.95326 v 14.06637 z"
           stroke-width="0.654"
           id="path29"
           style="stroke:#83ec06;stroke-opacity:1" />
        <path
           d="m 298.29756,326.68374 h 32.53374 v -13.93115 h -32.53374 z m -3.29496,-13.93115 h 39.12221 V 245.27711 H 295.0026 Z m 39.12221,-20.11367 h -3.95076 c -0.43186,0 -0.75903,0.34071 -0.82301,0.77062 -0.5322,3.60013 -4.79558,3.34423 -4.79703,-0.77062 l -5.37722,-27.99244 v -7.4474 h -9.22618 v 7.4474 l -5.37721,27.99244 c 0,4.11485 -4.26484,4.37075 -4.79704,0.77062 -0.064,-0.42991 -0.38969,-0.77062 -0.82301,-0.77062 h -3.95075 z m -19.56038,-47.36181 h 7.88842 v 14.12124 c 0,1.24148 0.99896,2.24899 2.23493,2.24899 h 1.88304 c 0.66307,0 1.17636,0.58345 1.09639,1.2444 l -1.77835,14.60234 c -0.16141,1.1669 -0.29227,1.89219 -1.12256,1.89219 -0.89862,-0.0877 -0.83028,-1.34091 -0.83755,-2.17734 0,-0.8101 0.0393,-4.58717 0.0567,-6.40479 0.007,-0.63463 -0.20357,-1.25171 -0.59909,-1.75035 l -4.20958,-5.30954 v -6.54517 h -9.22618 v 6.54517 l -4.20958,5.30954 c -0.39551,0.49864 -0.60636,1.11572 -0.59909,1.75035 0.0174,1.81762 0.0582,5.59469 0.0582,6.40479 -0.007,0.83643 0.0596,2.0896 -0.83756,2.17734 -0.83028,0 -0.9626,-0.72529 -1.124,-1.89219 l -1.77835,-14.60234 c -0.08,-0.66095 0.43331,-1.2444 1.09783,-1.2444 h 1.88305 c 1.23451,0 2.23493,-1.00751 2.23493,-2.24899 v -14.12124 z m 15.64888,0 v 47.36181 z m -31.29922,0 v 47.36181 z"
           stroke-width="0.673"
           id="path30"
           style="stroke:#83ec06;stroke-opacity:1" />
      </g>
    </g>
  </g>
</svg>
